<?xml version="1.0" encoding="utf-8"?>
<!-- Generator: Adobe Illustrator 26.3.1, SVG Export Plug-In . SVG Version: 6.00 Build 0)  -->
<svg version="1.1" id="Capa_1" xmlns="http://www.w3.org/2000/svg" xmlns:xlink="http://www.w3.org/1999/xlink" x="0px" y="0px"
	 viewBox="0 0 1000 1000" style="enable-background:new 0 0 1000 1000;" xml:space="preserve">
<style type="text/css">
	.st0{fill:#4E85EB;}
	.st1{fill:#FFFFFF;}
</style>
<rect class="st0" width="1000" height="1000"/>
<path d="M304.1,777.4c-28.4-9.4-49.7-24.6-64.1-45.8c-14.4-21.2-21.5-49.3-21.5-84.3v-62.1c0-49.3-19.5-73.9-58.5-73.9V482
	c39,0,58.5-24.5,58.5-73.4v-64.4c0.2-34.3,7.3-62,21.5-83.2c14.2-21.2,35.5-36.5,64.1-46.1l6.6,22.2
	c-41.2,14.6-61.8,51.2-61.8,109.9V407c0,46.1-15.5,76-46.6,89.7c31.1,14.4,46.6,44.2,46.6,89.4v64.1c0.7,54.7,21.5,89.7,62.6,104.8
	L304.1,777.4z"/>
<path class="st1" d="M526.5,663.9c-3-9.6-5-23.7-5.8-42.4C510,636.8,496.5,648.6,480,657c-16.5,8.3-33.9,12.5-52.3,12.5
	c-26.3,0-47.7-8.1-63.9-24.5c-16.3-16.3-24.4-36.9-24.4-61.8c0-29.6,11.1-53,33.3-70.3c22.2-17.2,53.1-25.9,92.8-25.9h55v-34.6
	c0-21.7-6-38.8-18.1-51.3c-12.1-12.5-29.7-18.7-52.8-18.7c-21.1,0-38.6,6-52.4,18c-13.8,12-20.8,26.4-20.8,43.3l-30.4-0.3
	c0-24.2,10.1-45.1,30.4-62.8c20.3-17.7,45.2-26.6,74.7-26.6c30.6,0,54.7,8.5,72.3,25.4c17.6,17,26.7,40.6,27.2,71v143.9
	c0,29.4,2.8,51.4,8.4,66v3.4L526.5,663.9L526.5,663.9z M431.2,639.7c20.3,0,38.4-5.4,54.3-16.3c16-10.9,27.6-25.4,34.8-43.6v-66.9
	h-54.2c-30.2,0.4-53.9,6.5-70.9,18.4c-17.1,11.9-25.6,28.2-25.6,49c0,17.1,5.7,31.2,17.1,42.4C398.2,634.1,413,639.7,431.2,639.7z"
	/>
<path class="st1" d="M619.2,509c0-47.6,9.5-85.3,28.5-113.1c19-27.8,44.8-41.7,77.4-41.7c37.3,0,65.7,16.5,85.1,49.5l1.5-43.8H840
	v297.9c0,39.2-9.9,70.2-29.6,93c-19.8,22.9-46.5,34.3-80.3,34.3c-19.1,0-37.3-4.7-54.6-14.2c-17.3-9.5-30.9-22.1-40.9-37.8l17-20.2
	c21.4,29.2,46.9,43.8,76.5,43.8c25.3,0,45.1-8.3,59.3-24.9c14.2-16.6,21.5-39.6,22-69v-38.2c-19.4,30-47.7,45-84.8,45
	c-31.7,0-57.2-14.1-76.5-42.2s-28.9-66-28.9-113.8L619.2,509L619.2,509z M649.8,514.9c0,38.8,7,69.4,21,91.8
	c14,22.4,33.8,33.6,59.3,33.6c37.3,0,63.7-18.6,79.3-55.7V443.2c-7.1-19.5-17.3-34.3-30.6-44.5c-13.3-10.2-29.4-15.3-48.1-15.3
	c-25.5,0-45.3,11.1-59.5,33.3C656.9,438.9,649.8,471.6,649.8,514.9z"/>
</svg>
