<?xml version="1.0" encoding="utf-8"?>
<!-- Generator: Adobe Illustrator 19.0.0, SVG Export Plug-In . SVG Version: 6.00 Build 0)  -->
<svg version="1.1" id="Capa_1" xmlns="http://www.w3.org/2000/svg" xmlns:xlink="http://www.w3.org/1999/xlink" x="0px" y="0px"
	 viewBox="-114 -143.2 2144 1987" style="enable-background:new -114 -143.2 2144 1987;" xml:space="preserve">
<style type="text/css">
	.st0{fill:#1C798B;}
	.st1{fill:#FFFFFF;}
</style>
<g id="XMLID_2_">
	<circle id="XMLID_18_" class="st0" cx="958" cy="850.3" r="889"/>
	<g id="XMLID_3_">
		<path id="XMLID_15_" class="st1" d="M1368.2,661.5h-1.3l0.1-76c0-19-20.4-31-37-21.8l-112.5,62.8L1122,626
			c-8.3-0.1-15.1,6.7-15.2,15l-0.5,107.1c0,8.3,6.2,15.2,14.4,16.1l12.5,0.2l-28,101.3l17.5,0.1l41-101.2l53.7,0.3l112.3,64.2
			c16.6,9.5,37.2-2.5,37.3-21.6l0.1-78.8h1.3c12.3,0.1,22.4-9.9,22.3-22.3l-0.1-23C1390.2,671.4,1380.4,661.6,1368.2,661.5z"/>
		<path id="XMLID_7_" class="st1" d="M1608.9,580.7c-15.5-38.6-38.7-71.9-68.9-98.8c-30.1-26.8-66.1-46.2-106.8-57.7
			c-39.1-11.3-91.7-16.9-160.8-17.1l-223.8-0.7c-5.7,0-11.4,0.2-17.5,0.6c-4.2-0.4-8.4-0.6-12.6-0.7c-30.8-0.1-56.6,8-76.7,24
			c-17.5,14-30.5,30.5-38.5,48.9c-5.6,12.7-13.3,33.7-23.7,64.1L734.4,963.6L600,546.6c-13.9-42.6-27.7-73.7-42.3-95
			c-14.6-21.4-43.9-46.9-100.4-47c-36.1-0.1-68.2,12.8-92.7,37.4c-24.4,24.4-37.4,54.1-37.5,85.6c0,11.2,1.5,23.7,4.8,38
			c2.9,13.1,6.6,25.5,11,36.8c3.5,9,6.8,18.2,9.9,27.2c0.1,0.3,196.8,531.8,196.8,531.8c7.2,20.8,14.6,40.8,21.9,59.4
			c8.4,21.4,18.4,41,29.9,58.2c13.8,20.7,32.1,37.5,54.4,49.9c22.8,12.8,50.1,19.3,80.9,19.4c31,0.1,58.4-6.4,81.4-19.4
			c22.1-12.5,40.3-29,53.9-49c10.6-15.6,20.1-33.5,28.3-53.3c3.9,32.8,15.2,59.9,33.8,80.6c24.5,27.4,58,41.9,96.8,42
			c37.6,0.1,70.7-14.2,95.8-41.5c24.2-26.4,36.6-63,36.7-108.9l0.6-187.8l106.6,0.3c114.5,0.3,203.4-25.2,264.5-76
			c63.6-52.9,96-130.1,96.3-229.3C1631.5,660.4,1623.9,618.2,1608.9,580.7z M1493,887.3c-52.4,43.6-130.3,65.2-233.7,64.9
			l-154.5-0.5l-0.7,235.7c-0.1,33.7-8.1,59.3-24.1,76.6c-16,17.4-36.1,26-60.3,25.9c-25.4-0.1-45.8-8.8-61.3-26
			c-15.5-17.3-23.2-42.6-23.1-75.9l0.7-232.5l-68.1,179.2c-7.3,20.5-14.5,39.9-21.8,58.3s-15.6,34.6-25.1,48.5s-22.1,25.4-37.9,34.2
			c-15.7,8.9-35,13.3-57.7,13.2c-22.7-0.1-41.9-4.5-57.6-13.3s-28.3-20.4-38-34.8c-9.6-14.4-18-30.7-25.1-49s-14.3-37.7-21.4-58.2
			L386.6,602.2c-3.4-9.7-6.9-19.2-10.4-28.5c-3.6-9.3-6.6-19.4-9-30.2s-3.6-19.9-3.6-27.4c0.1-19,7.9-36.3,23.4-51.9
			c15.6-15.6,35.1-23.4,58.6-23.3c28.8,0.1,49.1,8.8,61,26.2s24,45,36.4,83.1L729.9,1100l190.9-552.2c9.9-29,17.4-49.2,22.3-60.6
			c4.9-11.3,13.1-21.6,24.5-30.7c11.4-9.1,26.9-13.6,46.6-13.6c3.8,0,7.6,0.3,11.3,0.8c6-0.5,12.2-0.7,18.9-0.7l216.4,0.7
			c64,0.2,113.2,5.3,147.6,15.2c34.1,9.6,63.5,25.4,88.2,47.4s43.5,49,56.3,80.8c12.8,31.9,19.1,67.7,19,107.4
			C1571.7,779.5,1545.4,843.7,1493,887.3z"/>
		<path id="XMLID_4_" class="st0" d="M1496.7,506.4c-24.7-22-54.1-37.8-88.2-47.4c-34.4-10-83.7-15-147.6-15.2l-216.4-0.7
			c-6.6,0-12.9,0.2-18.9,0.7c-3.7-0.5-7.4-0.8-11.3-0.8c-19.7-0.1-35.2,4.5-46.6,13.6s-19.6,19.3-24.5,30.7
			c-5,11.3-12.4,31.5-22.3,60.6L730,1100.3L543,550.6c-12.4-38-24.5-65.7-36.4-83.1c-11.9-17.4-32.2-26.1-61-26.2
			c-23.5-0.1-43,7.7-58.6,23.3s-23.4,32.9-23.4,51.9c0,7.5,1.2,16.6,3.6,27.4c2.4,10.8,5.4,20.9,9,30.2s7,18.8,10.4,28.5L583.3,1134
			c7.1,20.5,14.3,39.9,21.4,58.2c7.1,18.3,15.5,34.6,25.1,49s22.3,26,38,34.8s34.9,13.2,57.6,13.3c22.7,0.1,41.9-4.3,57.7-13.2
			c15.7-8.9,28.4-20.3,37.9-34.2c9.5-13.9,17.9-30.1,25.1-48.5s14.5-37.9,21.8-58.3L936,955.9l-0.7,232.5
			c-0.1,33.3,7.6,58.6,23.1,75.9s35.9,26,61.3,26c24.2,0.1,44.3-8.6,60.3-25.9c16-17.4,24-42.9,24.1-76.6l0.7-235.7l154.5,0.5
			c103.4,0.3,181.3-21.3,233.7-64.9c52.4-43.6,78.7-107.8,79-192.6c0.1-39.8-6.2-75.6-19-107.4
			C1540.2,555.4,1521.4,528.4,1496.7,506.4z M1368.1,728.8h-1.3l-0.1,78.8c0,19.1-20.7,31.1-37.3,21.6L1217.1,765l-53.7-0.3
			l-41,101.2l-17.5-0.1l28-101.3l-12.5-0.2c-8.2-0.9-14.4-7.9-14.4-16.1l0.5-107.1c0-8.3,6.8-15.1,15.2-15l95.5,0.5l112.5-62.8
			c16.6-9.3,37.1,2.7,37,21.8l-0.1,76h1.3c12.1,0.1,22,9.9,22,22l0.1,23C1390.5,718.8,1380.4,728.9,1368.1,728.8z"/>
	</g>
</g>
</svg>
